<?xml version="1.0" encoding="UTF-8"?>
<!DOCTYPE svg PUBLIC "-//W3C//DTD SVG 1.1//EN" "http://www.w3.org/Graphics/SVG/1.1/DTD/svg11.dtd">
<svg width="100%" height="100%" viewBox="0 0 100 100" version="1.1" xmlns="http://www.w3.org/2000/svg" xmlns:xlink="http://www.w3.org/1999/xlink" xml:space="preserve" xmlns:serif="http://www.serif.com/" style="fill-rule:evenodd;clip-rule:evenodd;stroke-linejoin:round;stroke-miterlimit:1.41421;">
  <g>
    <path d="M50.001,20.779c-7.45,0 -13.512,6.061 -13.512,13.511c0,7.449 6.062,13.51 13.512,13.51c7.449,0 13.51,-6.061 13.51,-13.51c0,-7.45 -6.061,-13.511 -13.51,-13.511Zm6.561,23.324c-0.035,-0.756 -0.59,-2.582 -0.655,-2.794c-0.069,-0.227 -0.279,-0.37 -0.525,-0.351l-4.449,0.428c-0.138,0.013 -0.264,0.083 -0.348,0.192l-1.999,2.584c-0.087,0.113 -0.122,0.258 -0.096,0.398c0.026,0.14 0.111,0.263 0.233,0.336c1.108,0.666 1.981,0.977 2.607,1.124c-0.438,0.049 -0.88,0.08 -1.33,0.08c-2.856,0 -5.478,-1.02 -7.522,-2.713c0.062,0.026 0.122,0.059 0.188,0.059c0.023,0 0.047,-0.001 0.071,-0.005l0.765,-0.109c0.168,-0.024 0.313,-0.132 0.384,-0.287c0.071,-0.155 0.058,-0.335 -0.034,-0.478l-2.312,-3.607c-0.031,-0.048 -0.07,-0.091 -0.116,-0.126c-0.94,-0.722 -1.998,-1.544 -2.163,-1.687c-0.125,-0.133 -0.317,-0.192 -0.508,-0.137c-0.081,0.024 -0.146,0.071 -0.202,0.127c-0.228,-0.914 -0.361,-1.864 -0.361,-2.847c0,-0.52 0.045,-1.027 0.11,-1.529l2.347,-3.299c0.03,-0.042 0.053,-0.088 0.069,-0.137l1.145,-3.571c0.965,-0.92 2.083,-1.679 3.314,-2.233l3.098,1.737c0.075,0.042 0.159,0.064 0.245,0.064c0.015,0 0.03,0 0.045,-0.002l4.496,-0.408c0.151,-0.014 0.288,-0.096 0.372,-0.223c0.018,-0.026 0.422,-0.646 0.627,-1.477c2.842,1.044 5.17,3.146 6.509,5.832c-0.796,-0.556 -1.924,-1.103 -2.835,-1.236c-0.238,-0.036 -0.459,0.101 -0.541,0.322l-1.358,3.684c-0.053,0.141 -0.038,0.299 0.039,0.428l2.271,3.82c0.091,0.154 0.256,0.245 0.43,0.245c0.036,0 0.073,-0.004 0.11,-0.012c0.071,-0.017 1.764,-0.413 3.116,-1.737c-0.091,3.973 -2.145,7.47 -5.237,9.545Z" style="fill-rule:nonzero;"/>
    <path d="M48.497,28.734c-0.11,-0.123 -0.272,-0.183 -0.437,-0.164c-0.604,0.077 -4.562,1.975 -4.516,2.594c-0.156,1.649 0.442,4.684 0.468,4.812c0.04,0.2 0.196,0.355 0.396,0.394l4.352,0.831c0.031,0.006 0.063,0.009 0.094,0.009c0.183,0 0.355,-0.101 0.443,-0.268l2.25,-4.286c0.097,-0.184 0.069,-0.409 -0.068,-0.564l-2.982,-3.358Z" style="fill-rule:nonzero;"/>
  </g>
  <g>
    <path d="M74.817,58.76l-0.271,1.241l-0.152,0.034c-0.76,-0.635 -1.633,-0.952 -2.619,-0.952c-1.076,0 -1.904,0.371 -2.482,1.113c-0.578,0.742 -0.867,1.827 -0.867,3.256c0,1.439 0.289,2.538 0.867,3.298c0.578,0.759 1.395,1.139 2.449,1.139c1.043,0 1.988,-0.346 2.838,-1.037l0.17,0.085l-0.119,1.292c-0.984,0.544 -1.988,0.816 -3.008,0.816c-1.463,0 -2.596,-0.474 -3.4,-1.42c-0.804,-0.946 -1.207,-2.298 -1.207,-4.055c0,-1.802 0.42,-3.189 1.258,-4.164c0.838,-0.975 2.029,-1.463 3.57,-1.463c1.143,0.001 2.135,0.273 2.973,0.817Z" style="fill-rule:nonzero;"/>
    <path d="M18.251,68.943l-2.125,-6.324l-0.118,0l-2.244,6.324l-1.411,0l-3.468,-10.897l1.359,0l0.188,1.055l2.651,8.33l0.119,0l2.347,-6.63l-0.919,-2.755l1.395,0l0.255,1.174l2.687,8.211l0.102,0l2.958,-8.263l0.255,-1.122l1.292,0l-3.91,10.897l-1.413,0Z" style="fill-rule:nonzero;"/>
    <path d="M43.256,68.551l-0.017,0.17c-0.408,0.159 -0.828,0.261 -1.258,0.307l-0.188,-0.119c-0.93,-1.395 -1.763,-2.754 -2.499,-4.08l-1.989,0l0,0.646l0.068,3.4l-1.377,0l0.085,-3.281l-0.085,-7.616l3.332,-0.017c1.065,0 1.89,0.27 2.474,0.808c0.583,0.538 0.875,1.307 0.875,2.304c0,0.748 -0.195,1.419 -0.586,2.015c-0.392,0.595 -0.943,1.057 -1.658,1.385c0.748,1.233 1.69,2.594 2.823,4.078Zm-3.893,-4.828c1.269,-0.362 1.903,-1.207 1.903,-2.532c0,-1.349 -0.748,-2.052 -2.243,-2.108l-1.649,0.05l-0.051,4.539l2.04,0.051Z" style="fill-rule:nonzero;"/>
    <path d="M32.596,59.304c0.799,0.918 1.198,2.238 1.198,3.961c0,1.848 -0.425,3.275 -1.275,4.284c-0.85,1.009 -2.057,1.513 -3.621,1.513c-1.473,0 -2.612,-0.476 -3.417,-1.428c-0.805,-0.952 -1.206,-2.307 -1.206,-4.063c0,-1.812 0.422,-3.207 1.266,-4.182c0.845,-0.975 2.055,-1.462 3.63,-1.462c1.483,0 2.626,0.459 3.425,1.377Zm-6.928,4.097c0,3.016 1.104,4.522 3.315,4.522c2.266,0 3.399,-1.474 3.399,-4.42c0,-1.507 -0.274,-2.627 -0.824,-3.357c-0.55,-0.731 -1.386,-1.097 -2.508,-1.097c-2.254,0 -3.382,1.452 -3.382,4.352Z" style="fill-rule:nonzero;"/>
    <path d="M50.499,68.943l-5.372,0l0.085,-3.281l-0.085,-7.616l1.394,0l-0.085,7.497l0.051,2.262l4.029,0l0.103,0.119l-0.12,1.019Z" style="fill-rule:nonzero;"/>
    <path d="M59.806,59.231c0.84,0.896 1.258,2.183 1.258,3.856c0,1.939 -0.453,3.429 -1.36,4.462c-0.906,1.034 -2.209,1.551 -3.91,1.551c-1.125,0 -2.318,-0.032 -3.582,-0.104l-0.018,0l0.086,-3.324l-0.086,-7.717l0.017,0l3.979,-0.067c1.573,-0.001 2.78,0.445 3.616,1.343Zm-1.093,7.57c0.625,-0.765 0.938,-1.904 0.938,-3.42c0,-2.896 -1.188,-4.341 -3.565,-4.341c-0.725,0 -1.557,0.021 -2.498,0.068l-0.069,6.441l0.054,2.291c0.803,0.068 1.618,0.104 2.444,0.104c1.171,0.002 2.069,-0.379 2.696,-1.143Z" style="fill:#1a171b;fill-rule:nonzero;"/>
    <path d="M84.725,64.766c0.023,1.354 -0.332,2.412 -1.065,3.17c-0.735,0.759 -1.78,1.138 -3.135,1.138c-1.3,0 -2.295,-0.361 -2.99,-1.086c-0.692,-0.724 -1.028,-1.744 -1.008,-3.064l0.019,-1.498l-0.019,-5.512l1.36,0l-0.051,6.838c-0.022,2.078 0.906,3.117 2.789,3.117c1.906,0 2.848,-0.982 2.824,-2.945l-0.068,-7.01l1.379,0l-0.018,5.613l-0.017,1.239Z" style="fill:#1a171b;fill-rule:nonzero;"/>
    <path d="M92.792,58.862c0.578,0.55 0.867,1.341 0.867,2.372c0,1.213 -0.361,2.165 -1.08,2.855c-0.721,0.691 -1.715,1.037 -2.984,1.037l-1.291,0l0,0.425l0.068,3.4l-1.377,0l0.084,-3.281l-0.084,-7.616l3.332,-0.017c1.065,0 1.887,0.276 2.465,0.825Zm-0.527,2.491c0,-1.405 -0.748,-2.137 -2.244,-2.193l-1.649,0.05l-0.051,4.777l1.785,0.034c1.438,-0.226 2.159,-1.115 2.159,-2.668Z" style="fill-rule:nonzero;"/>
  </g>
</svg>
